<svg width="15" height="15" viewBox="0 0 15 15" fill="none" xmlns="http://www.w3.org/2000/svg">
<path fill-rule="evenodd" clip-rule="evenodd" d="M7.5 0.874695C7.76522 0.874695 8.01957 0.980052 8.20711 1.16759C8.39464 1.35512 8.5 1.60948 8.5 1.87469V6.87469H13.5C13.7652 6.87469 14.0196 6.98005 14.2071 7.16759C14.3946 7.35512 14.5 7.60948 14.5 7.87469C14.5 8.13991 14.3946 8.39427 14.2071 8.5818C14.0196 8.76934 13.7652 8.87469 13.5 8.87469H8.5V13.8747C8.5 14.1399 8.39464 14.3943 8.20711 14.5818C8.01957 14.7693 7.76522 14.8747 7.5 14.8747C7.23478 14.8747 6.98043 14.7693 6.79289 14.5818C6.60536 14.3943 6.5 14.1399 6.5 13.8747V8.87469H1.5C1.23478 8.87469 0.98043 8.76934 0.792893 8.5818C0.605357 8.39427 0.5 8.13991 0.5 7.87469C0.5 7.60948 0.605357 7.35512 0.792893 7.16759C0.98043 6.98005 1.23478 6.87469 1.5 6.87469H6.5V1.87469C6.5 1.60948 6.60536 1.35512 6.79289 1.16759C6.98043 0.980052 7.23478 0.874695 7.5 0.874695V0.874695Z" fill="#48BF84"/>
</svg>
