<svg width="14" height="15" viewBox="0 0 14 15" fill="none" xmlns="http://www.w3.org/2000/svg">
<path fill-rule="evenodd" clip-rule="evenodd" d="M0.341241 1.15344C0.559803 0.934725 0.856198 0.811857 1.16524 0.811857C1.47429 0.811857 1.77069 0.934725 1.98925 1.15344L6.99271 6.16194L11.9962 1.15344C12.1037 1.04201 12.2323 0.953134 12.3745 0.89199C12.5167 0.830846 12.6696 0.798662 12.8244 0.797316C12.9791 0.79597 13.1326 0.825488 13.2758 0.884149C13.4191 0.94281 13.5492 1.02944 13.6586 1.13898C13.7681 1.24852 13.8546 1.37878 13.9132 1.52216C13.9718 1.66554 14.0013 1.81917 14 1.97408C13.9986 2.12899 13.9665 2.28207 13.9054 2.42441C13.8443 2.56675 13.7555 2.69549 13.6442 2.80311L8.64072 7.81161L13.6442 12.8201C13.8565 13.0401 13.974 13.3348 13.9713 13.6407C13.9687 13.9466 13.8461 14.2393 13.63 14.4556C13.4139 14.6719 13.1216 14.7946 12.816 14.7972C12.5104 14.7999 12.216 14.6823 11.9962 14.4698L6.99271 9.46127L1.98925 14.4698C1.76943 14.6823 1.47503 14.7999 1.16944 14.7972C0.86385 14.7946 0.57153 14.6719 0.355438 14.4556C0.139346 14.2393 0.0167721 13.9466 0.0141166 13.6407C0.0114611 13.3348 0.128937 13.0401 0.341241 12.8201L5.34471 7.81161L0.341241 2.80311C0.122745 2.58433 0 2.28763 0 1.97827C0 1.66892 0.122745 1.37222 0.341241 1.15344Z" fill="#CED3DC"/>
</svg>
