<svg width="71" height="21" viewBox="0 0 71 21" fill="none" xmlns="http://www.w3.org/2000/svg">
<path d="M6.384 20V3.76H0.672V0.399999H15.792V3.76H10.08V20H6.384ZM25.132 20.392C22.668 20.392 20.708 19.72 19.252 18.376C17.796 17.0133 17.068 15.072 17.068 12.552V7.848C17.068 5.328 17.796 3.396 19.252 2.052C20.708 0.689332 22.668 0.0079987 25.132 0.0079987C27.596 0.0079987 29.556 0.689332 31.012 2.052C32.468 3.396 33.196 5.328 33.196 7.848V12.552C33.196 15.072 32.468 17.0133 31.012 18.376C29.556 19.72 27.596 20.392 25.132 20.392ZM25.132 17.088C26.5133 17.088 27.5866 16.6867 28.352 15.884C29.1173 15.0813 29.5 14.008 29.5 12.664V7.736C29.5 6.392 29.1173 5.31867 28.352 4.516C27.5866 3.71333 26.5133 3.312 25.132 3.312C23.7693 3.312 22.696 3.71333 21.912 4.516C21.1466 5.31867 20.764 6.392 20.764 7.736V12.664C20.764 14.008 21.1466 15.0813 21.912 15.884C22.696 16.6867 23.7693 17.088 25.132 17.088Z" fill="#2C6E49"/>
<path d="M35.8778 20V16.752H38.4538V3.648H35.8778V0.399999H43.9418C46.5738 0.399999 48.5712 1.072 49.9338 2.416C51.3152 3.74133 52.0058 5.72 52.0058 8.352V12.048C52.0058 14.68 51.3152 16.668 49.9338 18.012C48.5712 19.3373 46.5738 20 43.9418 20H35.8778ZM42.1498 16.64H43.9978C45.4912 16.64 46.5832 16.248 47.2738 15.464C47.9645 14.68 48.3098 13.5787 48.3098 12.16V8.24C48.3098 6.80267 47.9645 5.70133 47.2738 4.936C46.5832 4.152 45.4912 3.76 43.9978 3.76H42.1498V16.64ZM62.7023 20.392C60.2383 20.392 58.2783 19.72 56.8223 18.376C55.3663 17.0133 54.6383 15.072 54.6383 12.552V7.848C54.6383 5.328 55.3663 3.396 56.8223 2.052C58.2783 0.689332 60.2383 0.0079987 62.7023 0.0079987C65.1663 0.0079987 67.1263 0.689332 68.5823 2.052C70.0383 3.396 70.7663 5.328 70.7663 7.848V12.552C70.7663 15.072 70.0383 17.0133 68.5823 18.376C67.1263 19.72 65.1663 20.392 62.7023 20.392ZM62.7023 17.088C64.0836 17.088 65.1569 16.6867 65.9223 15.884C66.6876 15.0813 67.0703 14.008 67.0703 12.664V7.736C67.0703 6.392 66.6876 5.31867 65.9223 4.516C65.1569 3.71333 64.0836 3.312 62.7023 3.312C61.3396 3.312 60.2663 3.71333 59.4823 4.516C58.7169 5.31867 58.3343 6.392 58.3343 7.736V12.664C58.3343 14.008 58.7169 15.0813 59.4823 15.884C60.2663 16.6867 61.3396 17.088 62.7023 17.088Z" fill="#4C956C"/>
</svg>
